<svg width="59" height="59" viewBox="0 0 59 59" fill="none" xmlns="http://www.w3.org/2000/svg">
<g clip-path="url(#clip0_9_32)">
<path d="M0 29.5C0 13.2076 13.2076 0 29.5 0C45.7924 0 59 13.2076 59 29.5C59 45.7924 45.7924 59 29.5 59C13.2076 59 0 45.7924 0 29.5Z" fill="white"/>
<path fill-rule="evenodd" clip-rule="evenodd" d="M16.1638 18.4138C16.1638 18.9896 15.8172 19.4845 15.3212 19.7012V44.659C15.3212 44.8573 15.1606 45.0178 14.9623 45.0178H14.5565C14.3583 45.0178 14.1977 44.8573 14.1977 44.659V19.7012C13.7017 19.4845 13.3551 18.9896 13.3551 18.4138C13.3551 17.6382 13.9839 17.0094 14.7594 17.0094C15.535 17.0094 16.1638 17.6382 16.1638 18.4138ZM17.334 38.3433C19.5675 37.9598 21.937 37.709 26.2436 37.709C28.7332 37.709 31.1458 37.9718 33.2894 38.205C35.0028 38.3915 36.5443 38.5595 37.8156 38.5595C40.4872 38.5595 43.9177 38.436 45.3743 38.1888C45.5395 38.161 45.6548 38.0154 45.6548 37.8479V19.5495C45.6548 19.3334 45.4651 19.1664 45.2506 19.1918C43.1338 19.4423 40.9034 19.5675 37.8156 19.5675C36.3629 19.5675 34.8567 19.4012 33.1765 19.2157C31.0571 18.9817 28.6609 18.7171 25.7459 18.7171C22.3753 18.7171 19.7754 19.0547 17.6643 19.3288C17.5154 19.3482 17.3689 19.3672 17.2247 19.3858C17.0454 19.4089 16.9114 19.5613 16.9114 19.7421V37.9884C16.9114 38.2122 17.1136 38.3812 17.334 38.3433Z" fill="black"/>
<path fill-rule="evenodd" clip-rule="evenodd" d="M32.3293 27.6251V23.4668C32.3293 23.4668 30.723 23.2521 30.1009 23.2521C30.1009 23.2521 30.0929 25.1761 30.0875 27.403C28.7553 27.3088 27.5816 27.3107 26.5325 27.3126C26.3926 27.3128 26.2548 27.313 26.1191 27.313V29.7718C26.9227 29.7718 28.3748 29.7718 30.083 29.921C30.0811 31.9146 30.0845 33.6692 30.1009 34.0236C30.4166 34.0955 30.668 34.1311 31.0003 34.1779C31.3229 34.2232 31.7218 34.2794 32.3293 34.39V30.1762C34.0447 30.3791 35.3079 30.4804 36.5714 30.4804V27.9293C35.2028 27.9293 34.1907 27.828 32.3293 27.6251Z" fill="white"/>
</g>
<defs>
<clipPath id="clip0_9_32">
<rect width="59" height="59" fill="white"/>
</clipPath>
</defs>
</svg>
